<svg fill="#ffffff" version="1.1" xmlns="http://www.w3.org/2000/svg" viewBox="0 0 40 40" width="33" height="33" xml:space="preserve">
	<path d="M35,27.8l-8.6-2.6c1.4-1.4,2.5-3.2,2.7-5.2c1.1-0.4,1.9-1.7,1.9-3.3c0-0.5-0.1-1-0.2-1.4c0,0,0-0.1,0-0.1
		l0.8-5.8c0-0.1,0.3-3.3-2.1-6C27.6,1.1,24.4,0,20,0s-7.6,1.1-9.6,3.4C8,6,8.3,9.2,8.3,9.4l0.8,5.8c0,0,0,0.1,0,0.1
		c-0.2,0.4-0.2,0.9-0.2,1.4c0,1.6,0.8,2.8,1.9,3.3c0.2,2.1,1.3,3.9,2.7,5.2l-8.6,2.6C2,28.9,0,31.8,0,34.9V40h40v-5.1
		C40,31.8,38,28.9,35,27.8z M10.8,13.4l-0.6-4.3c0,0-0.2-2.5,1.6-4.5c1.6-1.8,4.4-2.7,8.2-2.7s6.6,0.9,8.2,2.7
		c1.5,1.6,1.6,3.6,1.6,4.3c0,0.1,0,0.2,0,0.2l-0.6,4.3c0,0-0.1,0-0.1,0l-0.7-3.5c-0.1-0.4-0.5-0.8-0.9-0.8c-4.9,0-5.7-1.4-6.2-2.3
		c-0.2-0.3-0.3-0.5-0.6-0.8c-0.4-0.4-1-0.4-1.4,0c-0.2,0.2-0.4,0.5-0.6,0.8c-0.5,0.9-1.3,2.3-6.2,2.3c-0.4,0-0.8,0.3-0.9,0.8
		l-0.7,3.5C10.9,13.4,10.8,13.4,10.8,13.4z M12.7,19.2c0-0.5-0.4-1-1-1c-0.7,0-0.9-0.9-0.9-1.5c0-0.6,0.2-1.5,0.9-1.5
		c0.5,0,0.8-0.3,0.9-0.8l0.7-3.4c4.2-0.1,5.8-1.3,6.7-2.6c0.9,1.3,2.5,2.4,6.7,2.6l0.7,3.4c0.1,0.4,0.5,0.8,0.9,0.8
		c0.7,0,0.9,0.9,0.9,1.5c0,0.6-0.2,1.5-0.9,1.5c-0.5,0-1,0.4-1,1c0,4.4-5.4,7.3-7.3,7.3S12.7,23.6,12.7,19.2z M38.1,38.1H1.9v-3.2
		c0-2.4,1.5-4.5,3.6-5.3l9.8-3c1.7,1.1,3.5,1.8,4.7,1.8s3-0.6,4.7-1.8l9.8,3c2.2,0.8,3.7,3,3.7,5.3V38.1z"/>
	<path d="M18.3,16.8c-0.5,0-0.9-0.4-0.9-0.8c-0.1,0-0.3,0-0.5,0l-0.2,0l-0.2,0c-0.2,0-0.3,0-0.5,0
		c-0.1,0.4-0.5,0.8-0.9,0.8c-0.5,0-1-0.4-1-0.9c0-0.5,0.2-1,0.5-1.3c0.5-0.5,1.3-0.5,1.9-0.5l0.2,0l0.2,0c0.7,0,1.4,0,1.9,0.5
		c0.3,0.3,0.5,0.7,0.5,1.3C19.3,16.4,18.9,16.8,18.3,16.8z"/>
	<path d="M25,16.8c-0.5,0-0.9-0.4-0.9-0.8c-0.1,0-0.3,0-0.5,0l-0.2,0l-0.2,0c-0.2,0-0.3,0-0.5,0
		c-0.1,0.4-0.5,0.8-0.9,0.8c-0.5,0-1-0.4-1-0.9c0-0.5,0.2-1,0.5-1.3c0.5-0.5,1.3-0.5,1.9-0.5l0.2,0l0.2,0c0.7,0,1.4,0,1.9,0.5
		c0.3,0.3,0.5,0.7,0.5,1.3C25.9,16.4,25.5,16.8,25,16.8z"/>
</svg>
