<svg fill="#ffffff" version="1.1" xmlns="http://www.w3.org/2000/svg" viewBox="0 0 40 40" width="33" height="33" xml:space="preserve">
	<path d="M24.5,16.4H13.6c-0.5,0-0.9-0.4-0.9-0.9V8.2c0-0.5,0.4-0.9,0.9-0.9h10.9c0.5,0,0.9,0.4,0.9,0.9v7.3
		C25.5,16,25,16.4,24.5,16.4z M14.5,14.5h9.1V9.1h-9.1V14.5z"/>
	<path d="M37.3,3.6h-4.5V0.9c0-0.5-0.4-0.9-0.9-0.9H4.5C4,0,3.6,0.4,3.6,0.9v4.5H2.7c-0.5,0-0.9,0.4-0.9,0.9
		s0.4,0.9,0.9,0.9h0.9v3.6H2.7c-0.5,0-0.9,0.4-0.9,0.9c0,0.5,0.4,0.9,0.9,0.9h0.9v3.6H2.7c-0.5,0-0.9,0.4-0.9,0.9
		c0,0.5,0.4,0.9,0.9,0.9h0.9v3.6H2.7c-0.5,0-0.9,0.4-0.9,0.9c0,0.5,0.4,0.9,0.9,0.9h0.9v3.6H2.7c-0.5,0-0.9,0.4-0.9,0.9
		s0.4,0.9,0.9,0.9h0.9v3.6H2.7c-0.5,0-0.9,0.4-0.9,0.9s0.4,0.9,0.9,0.9h0.9v4.5C3.6,39.6,4,40,4.5,40h27.3c0.5,0,0.9-0.4,0.9-0.9
		v-4.5h4.5c0.5,0,0.9-0.4,0.9-0.9V4.5C38.2,4,37.8,3.6,37.3,3.6z M30.9,38.2H5.5v-3.6h0.9c0.5,0,0.9-0.4,0.9-0.9s-0.4-0.9-0.9-0.9
		H5.5v-3.6h0.9c0.5,0,0.9-0.4,0.9-0.9s-0.4-0.9-0.9-0.9H5.5v-3.6h0.9c0.5,0,0.9-0.4,0.9-0.9c0-0.5-0.4-0.9-0.9-0.9H5.5v-3.6h0.9
		c0.5,0,0.9-0.4,0.9-0.9c0-0.5-0.4-0.9-0.9-0.9H5.5v-3.6h0.9c0.5,0,0.9-0.4,0.9-0.9c0-0.5-0.4-0.9-0.9-0.9H5.5V7.3h0.9
		c0.5,0,0.9-0.4,0.9-0.9S6.9,5.5,6.4,5.5H5.5V1.8h25.5V38.2z M32.7,5.5h3.6v5.5h-3.6V5.5z M32.7,12.7h3.6v5.5h-3.6V12.7z
		 M36.4,32.7h-3.6v-5.5h3.6V32.7z M36.4,25.5h-3.6V20h3.6V25.5z"/>
</svg>
