<svg fill="#ffffff" version="1.1" xmlns="http://www.w3.org/2000/svg" viewBox="0 0 40 40" width="33" height="33" xml:space="preserve">
	<path d="M20,0C9,0,0,9,0,20c0,11,9,20,20,20c7.3,0,10-2.7,10.9-5c0.8-1.9,0.6-3.8,0.1-4.9l0.6-0.5
		c0.7-0.7,1.1-1.5,1.1-2.4c0-0.9-0.3-1.8-0.9-2.4l-2.6-2.6c-1.3-1.3-3.4-1.2-4.8,0.2l-0.4,0.4c-2.4-2-4.7-4.3-6.7-6.7l0.4-0.4
		c1.4-1.4,1.5-3.5,0.2-4.8l-2.6-2.6C14,7,11.8,7,10.4,8.4L8.9,10c-1.6,1.6-2,4.1-0.9,5.9c4.1,6.4,9.6,12,16.1,16.1
		c0.7,0.4,1.5,0.7,2.3,0.7c1.1,0,2.3-0.4,3.3-1.2c0.1,0.8,0.2,2-0.4,3.2c-1.2,2.4-4.4,3.7-9.2,3.7C9.9,38.3,1.7,30.1,1.7,20
		S9.9,1.7,20,1.7S38.3,9.9,38.3,20c0,3.7-1.1,7.3-3.2,10.4c-0.3,0.4-0.2,0.9,0.2,1.2c0.4,0.3,0.9,0.2,1.2-0.2
		C38.8,28,40,24.1,40,20C40,9,31,0,20,0z M25,30.6C18.7,26.6,13.4,21.3,9.4,15c-0.7-1.1-0.5-2.8,0.6-3.8l1.6-1.6
		C12,9.2,12.5,9,13,9c0.4,0,0.8,0.1,1.1,0.4l2.6,2.6c0.3,0.3,0.4,0.7,0.4,1.1c0,0.5-0.2,1-0.6,1.4l-1,1c-0.3,0.3-0.3,0.8-0.1,1.1
		c2.3,2.9,5.1,5.7,8,8c0.3,0.3,0.8,0.2,1.1-0.1l1-1c0.7-0.7,1.8-0.8,2.5-0.2l2.6,2.6c0.3,0.3,0.4,0.7,0.4,1.2
		c0,0.5-0.2,0.9-0.6,1.3L28.8,30C27.7,31.1,26.1,31.3,25,30.6z"/>
</svg>
