<svg fill="#ffffff" version="1.1" xmlns="http://www.w3.org/2000/svg" viewBox="0 0 40 40" width="33" height="33" xml:space="preserve">
	<path d="M39.2,35h-6.7c-0.5,0-0.8-0.4-0.8-0.8v-2.5c0-1.1-0.9-2.1-2.1-2.1c-1.1,0-2.1,0.9-2.1,2.1v2.5
		c0,0.5-0.4,0.8-0.8,0.8H13.3c-0.5,0-0.8-0.4-0.8-0.8v-2.5c0-1.1-0.9-2.1-2.1-2.1s-2.1,0.9-2.1,2.1v2.5C8.3,34.6,8,35,7.5,35H0.8
		C0.4,35,0,34.6,0,34.2V5.8C0,5.4,0.4,5,0.8,5h38.3C39.6,5,40,5.4,40,5.8v28.3C40,34.6,39.6,35,39.2,35z M33.3,33.3h5V6.7H1.7v26.7
		h5v-1.7c0-2.1,1.7-3.8,3.8-3.8s3.8,1.7,3.8,3.8v1.7h11.7v-1.7c0-2.1,1.7-3.8,3.8-3.8s3.7,1.7,3.7,3.8V33.3z"/>
	<rect x="21.7" y="21.7" width="13.3" height="1.7"/>
	<rect x="21.7" y="18.3" width="13.3" height="1.7"/>
	<rect x="21.7" y="15" width="13.3" height="1.7"/>
	<rect x="21.7" y="11.7" width="6.7" height="1.7"/>
	<path d="M18.3,25H5c-0.5,0-0.8-0.4-0.8-0.8v-3.3c0-0.2,0-0.3,0.1-0.5c0.1-0.1,1.7-2.5,4.9-2.8v-0.4
		c-0.6-0.5-1.7-1.6-1.7-3.8c0-1.7,0-4.2,4.2-4.2s4.2,2.5,4.2,4.2c0,2.1-1,3.3-1.7,3.8v0.4c3.2,0.4,4.8,2.7,4.9,2.8
		c0.1,0.1,0.1,0.3,0.1,0.5v3.3C19.2,24.6,18.8,25,18.3,25z M5.8,23.3h11.7v-2.2c-0.4-0.5-1.8-1.9-4.2-1.9c-0.5,0-0.8-0.4-0.8-0.8
		v-1.7c0-0.3,0.2-0.6,0.5-0.7c0,0,1.2-0.7,1.2-2.6c0-1.7,0-2.5-2.5-2.5s-2.5,0.8-2.5,2.5c0,1.9,1.2,2.6,1.2,2.6
		c0.3,0.1,0.4,0.4,0.4,0.7v1.7c0,0.5-0.4,0.8-0.8,0.8c-2.4,0-3.7,1.4-4.2,1.9V23.3z"/>
</svg>
