<svg fill="#ffffff" version="1.1" xmlns="http://www.w3.org/2000/svg" viewBox="0 0 20 20" width="20" height="20" xml:space="preserve">
		<path d="M19.8,7.5l-9.7-5c-0.1-0.1-0.2-0.1-0.3,0l-9.7,5C0.1,7.6,0,7.7,0,7.8C0,8,0.1,8.1,0.2,8.1l3.2,1.6v3.4
			C2.6,13.4,2,14,2,14.8c0,0.9,0.7,1.7,1.7,1.7s1.7-0.7,1.7-1.7c0-0.8-0.6-1.5-1.3-1.6v-3.1l5.8,3c0,0,0.1,0,0.2,0s0.1,0,0.2,0
			l5.8-3v1.4c0,1.6-2.3,3.8-6,3.8c-0.9,0-1.8-0.1-2.9-0.4c-0.2,0-0.4,0.1-0.4,0.2c0,0.2,0.1,0.4,0.2,0.4C8,15.9,9,16,10,16
			c4.1,0,6.7-2.6,6.7-4.5V9.8l3.2-1.6C19.9,8.1,20,8,20,7.8C20,7.7,19.9,7.6,19.8,7.5z M4.7,14.8c0,0.6-0.4,1-1,1c-0.6,0-1-0.4-1-1
			c0-0.6,0.4-1,1-1C4.2,13.8,4.7,14.3,4.7,14.8z M16.2,9.3C16.2,9.3,16.2,9.3,16.2,9.3L10,12.5L4.5,9.6l5.6-1.5
			c0.2,0,0.3-0.2,0.2-0.4c0-0.2-0.2-0.3-0.4-0.2L3.6,9.2L1.1,7.8L10,3.2l8.9,4.6L16.2,9.3z"/>
</svg>
