<svg fill="#005899" version="1.1" xmlns="http://www.w3.org/2000/svg" viewBox="0 0 24 24" width="24" height="24" xml:space="preserve">
	<path d="M21.6,3.4H2.4C1.1,3.4,0,4.4,0,5.8v12.8c0,1.3,1,2.3,2.2,2.4c0.1,0,0.1,0,0.2,0h19.2c1.3,0,2.3-1.1,2.4-2.4
		V5.8C24,4.4,22.9,3.4,21.6,3.4z M21.3,5l-7.3,7.3c0,0,0,0-0.1,0l-0.1,0.1L12,14.2L2.7,5H21.3z M1.6,6.1L8.5,13l-6.4,6.4
		c-0.3-0.1-0.5-0.4-0.5-0.8V6.1z M4.3,19.4l5.3-5.3l1.8,1.8c0.2,0.2,0.4,0.2,0.6,0.2c0.2,0,0.4-0.1,0.6-0.2l1.8-1.8l5.3,5.3H4.3z
		 M22.4,18.6c0,0.3-0.2,0.6-0.5,0.8L15.5,13l6.9-6.9V18.6z"/>
</svg>
