<svg fill="#005899" version="1.1" xmlns="http://www.w3.org/2000/svg" viewBox="0 0 24 24" width="24" height="24" xml:space="preserve">
	<path d="M24,5.8c-0.9,0.4-1.8,0.5-2.8,0.6c0.9-0.7,1.3-0.9,2-2.2c-1,0.6-1.9,0.5-3,0.7C19.3,4,18,3.4,16.6,3.4
		c-2.7,0-4.9,2.2-4.9,4.8c0,0.4,0,0.7,0.1,1.1C7.7,9.1,4,7.1,1.6,4.2C1.2,4.9,1,5.8,1,6.7c0,1.7,0.9,3.2,2.2,4
		c-0.8,0-1.6-0.2-2.2-0.5c0,0,0,0,0,0.1c0,2.3,1.7,4.3,4,4.8c-0.4,0.1-0.8,0.2-1.3,0.2c-0.3,0-0.6,0-0.9-0.1C3.3,17,5,18.6,7.2,18.6
		C5.1,21,0.4,20.2,0,20.2c2.2,1.4,4.8,2.4,7.5,2.4c9.1,0,14-7.4,14-13.8c0-0.2,0-0.4,0-0.6C22.5,7.5,23.3,6.8,24,5.8z"/>
</svg>
