<svg fill="#005899" version="1.1" xmlns="http://www.w3.org/2000/svg" viewBox="0 0 24 24" width="24" height="24" xml:space="preserve">
	<path d="M18.4,14.6c-0.1-0.1-0.3-0.2-0.6-0.3c-0.3-0.1-1.7-0.9-2-1c-0.3-0.1-0.5-0.1-0.7,0.1c-0.2,0.3-0.8,0.9-0.9,1.1
		c-0.2,0.2-0.3,0.2-0.6,0.1c-0.3-0.1-1.2-0.5-2.4-1.5c-0.9-0.8-1.5-1.7-1.6-2c-0.2-0.3,0-0.5,0.1-0.6c0.1-0.1,0.3-0.3,0.4-0.5
		c0.1-0.2,0.2-0.3,0.3-0.5c0.1-0.2,0.1-0.4,0-0.5c-0.1-0.1-0.7-1.6-0.9-2.2c-0.2-0.6-1-0.5-1.2-0.5C8,6.4,7.7,6.5,7.4,6.8
		c-0.3,0.3-1,1-1,2.4c0,1.4,1.1,2.8,1.2,3c0.1,0.2,2.2,3.2,5.2,4.4c2.8,1.1,3.4,1,4,0.8c0.5-0.2,1.1-0.8,1.4-1.5
		C18.4,15.3,18.4,14.7,18.4,14.6L18.4,14.6z"/>
	<path d="M12,0C5.4,0,0,5.4,0,12c0,2.1,0.6,4.1,1.5,5.9L0,24l6.1-1.5c1.7,1,3.7,1.5,5.9,1.5c6.6,0,12-5.4,12-12
		C24,5.4,18.6,0,12,0z M12,22.4c-2.1,0-4-0.6-5.6-1.7l0,0l0,0l0,0l-2.1,0.5l0,0l-1.9,0.4l0.9-3.7l0,0l0-0.1
		c-1.1-1.7-1.8-3.6-1.8-5.8C1.6,6.3,6.3,1.6,12,1.6c5.7,0,10.4,4.7,10.4,10.4C22.4,17.7,17.7,22.4,12,22.4z"/>
</svg>
