<svg fill="#ffffff" version="1.1" xmlns="http://www.w3.org/2000/svg" viewBox="0 0 20 20" width="20" height="20" xml:space="preserve">
	<path d="M6.5,14c-0.1,0-0.1,0-0.2-0.1c-0.1-0.1-0.2-0.2-0.1-0.4l1.2-3.1L5,8.6C4.9,8.5,4.8,8.4,4.9,8.2
		C4.9,8.1,5,8,5.2,8h3.1l0.9-2.7C9.3,5.1,9.4,5,9.5,5c0,0,0,0,0,0c0.1,0,0.3,0.1,0.3,0.2L10.7,8h2.8c0.1,0,0.3,0.1,0.3,0.2
		c0,0.1,0,0.3-0.1,0.4l-2.2,1.8l1.2,3.1c0.1,0.1,0,0.3-0.1,0.4c-0.1,0.1-0.3,0.1-0.4,0l-2.8-1.9l-2.8,1.9C6.6,14,6.6,14,6.5,14z
		 M6.2,8.7L8,10.1c0.1,0.1,0.2,0.3,0.1,0.4l-0.9,2.3l2.1-1.4c0.1-0.1,0.3-0.1,0.4,0l2.1,1.4l-0.9-2.3c-0.1-0.1,0-0.3,0.1-0.4
		l1.6-1.4h-2.1c-0.1,0-0.3-0.1-0.3-0.2l-0.7-2l-0.7,2c0,0.1-0.2,0.2-0.3,0.2H6.2z"/>
	<path d="M17.5,0h-16C1.3,0,1.2,0.1,1.2,0.3v6.1c0,5.7,3.1,10.9,8.2,13.5c0,0,0.1,0,0.2,0c0,0,0.1,0,0.2,0
		c5-2.6,8.2-7.8,8.2-13.5V0.3C17.8,0.1,17.7,0,17.5,0z M1.9,0.7h15.3v2H1.9V0.7z M17.2,6.4c0,5.4-2.9,10.3-7.6,12.8
		c-4.7-2.6-7.7-7.5-7.7-12.8V3.3h15.3V6.4z"/>
</svg>
